<?xml version="1.0" standalone="no"?>
<!DOCTYPE svg PUBLIC "-//W3C//DTD SVG 20010904//EN"
 "http://www.w3.org/TR/2001/REC-SVG-20010904/DTD/svg10.dtd">
<svg version="1.0" xmlns="http://www.w3.org/2000/svg"
 width="218.000000pt" height="218.000000pt" viewBox="0 0 218.000000 218.000000"
 preserveAspectRatio="xMidYMid meet">
<metadata>
Created by potrace 1.14, written by Peter Selinger 2001-2017
</metadata>
<g transform="translate(0.000000,218.000000) scale(0.100000,-0.100000)"
fill="#000000" stroke="none">
<path d="M885 2159 c-226 -46 -405 -141 -562 -298 -168 -167 -277 -382 -311
-611 -11 -72 -7 -300 7 -365 78 -381 344 -691 701 -819 219 -79 480 -84 700
-14 344 109 615 388 716 737 32 111 39 163 39 306 0 142 -5 181 -40 300 -112
387 -428 677 -835 765 -96 21 -313 21 -415 -1z"/>
</g>
</svg>
